<svg width="1883" height="1882" xmlns="http://www.w3.org/2000/svg">
  <path d="M0 393h98v196h104v202h98v-98c29.921 0 29.921 0 44.289.219l4.21.06q7.563.107 15.126.221L398 694v-99h197v-99h300v99h693v98h98v98h99v99h98v496h-98v97h-99v100h-393v102h-99v99h-103v98H797v-103h98v-98h-99v-98h99v-99h-98v-98h594v-98h99v-202H398v-98H98v-98H0z" fill="#ff5295"/>
  <path d="M0 393h98v196h104v202h98v-98c29.921 0 29.921 0 44.289.219l4.21.06q7.563.107 15.126.221L398 694v-99h197v-99h300v99h98v393H98v-98H0z" fill="#fd3e89"/>
  <path d="M993 595h595v98h98v98h99v99h98v496h-98v97h-99v100h-295v-99h197v-98h98V890h-98v-99h-197v-98h-201v393H398v-98h595z" fill="#f23281"/>
  <path d="M797 1386h496v299h-99v99h-103v98H797v-103h98v-98h-99v-98h99v-99h-98z" fill="#fd3e89"/>
  <path d="M595 496h300v394H595V693h-99v197h-98V595h197z" fill="#ff639e"/>
  <path d="M1190 1386h103v299h-99v99h-103v98H797v-103h196v-98h98v-98h99z" fill="#f23281"/>
  <path d="M0 393h98v196h104v202h98v99H0z" fill="#fd3e89"/>
  <path d="M398 988h693v98H398z" fill="#e21d79"/>
  <path d="M595 196h595v99H595z" fill="#ff639e"/>
  <path d="M1190 693h201v98h99v99h-300z" fill="#ff639e"/>
  <path d="M1785 890h98v496h-98z" fill="#fd3e89"/>
  <path d="M497 0h496v98H497z" fill="#fd3e89"/>
  <path d="M1391 693h295v98h99v99h-197v-99h-197z" fill="#f23281"/>
  <path d="M797 1386h393v98H993v99l-92 1-1 4h-5v-104h-98z" fill="#ff5295"/>
  <path d="M98 589h104v202h98v99H98z" fill="#ff639e"/>
  <path d="M1293 1386h295v98h-197v99h-98z" fill="#fd3e89"/>
  <path d="M993 595h98v393h-98z" fill="#f23281"/>
  <path d="M595 496h300v99H595z" fill="#fd3e89"/>
  <path d="M1588 1086h98v202h-98z" fill="#ff639e"/>
  <path d="M98 890h202v98H98z" fill="#fd3e89"/>
  <path d="M693 595h202v98H693zm497 98h201v98h-201z" fill="#ff9ebd"/>
  <path d="M496 693h99v197h-99z" fill="#191635"/>
  <path d="M398 693h98v197h-98z" fill="#ff639e"/>
  <path d="M398 595h197v98H398zm1190 295h98v196h-98z" fill="#fd3e89"/>
  <path d="M300 890h196v98H300z" fill="#f23281"/>
  <path d="M300 98h196v98H300z" fill="#fd3e89"/>
  <path d="M398 296h197v97H398z" fill="#ff639e"/>
  <path d="M98 296h104v97H98z" fill="#fd3e89"/>
  <path d="M1686 791h99v99h-99zm-98 693h98v99h-98z" fill="#fd3e89"/>
  <path d="M1588 791h98v99h-98z" fill="#e21d79"/>
  <path d="M1490 791h98v99h-98z" fill="#fd3e89"/>
  <path d="M496 693h99v98h-99z" fill="#393a56"/>
  <path d="M202 196h98v99h-98zm1386 1092h98v98h-98z" fill="#fd3e89"/>
  <path d="M202 491h98v98h-98zm98-98h98v98h-98z" fill="#ff639e"/>
  <path d="M1686 1386h99v97h-99z" fill="#fd3e89"/>
  <path d="M1190 296h98v97h-98z" fill="#ff639e"/>
  <path d="M895 1583h6l-1 5h-5z" fill="#fd3e89"/>
</svg>
